<mxfile host="app.diagrams.net" modified="2024-07-11T03:45:24.184Z" agent="Mozilla/5.0 (Windows NT 10.0; Win64; x64) AppleWebKit/537.36 (KHTML, like Gecko) Chrome/109.0.0.0 Safari/537.36 SLBrowser/9.0.3.5211 SLBChan/33" etag="FEveOstpWKWKMX5-nWUV" version="24.6.4" type="github">
  <diagram name="第 1 页" id="V5-xxTx2RUl3e2uETWci">
    <mxGraphModel dx="1290" dy="541" grid="1" gridSize="10" guides="1" tooltips="1" connect="1" arrows="1" fold="1" page="1" pageScale="1" pageWidth="827" pageHeight="1169" math="0" shadow="0">
      <root>
        <mxCell id="0" />
        <mxCell id="1" parent="0" />
        <mxCell id="ghIqLs4iLFED382wYcei-1" value="&lt;font style=&quot;font-size: 18px;&quot;&gt;10&lt;/font&gt;" style="ellipse;whiteSpace=wrap;html=1;aspect=fixed;" vertex="1" parent="1">
          <mxGeometry x="210" y="400" width="60" height="60" as="geometry" />
        </mxCell>
        <mxCell id="ghIqLs4iLFED382wYcei-2" value="&lt;font style=&quot;font-size: 18px;&quot;&gt;5&lt;/font&gt;" style="ellipse;whiteSpace=wrap;html=1;aspect=fixed;" vertex="1" parent="1">
          <mxGeometry x="120" y="490" width="60" height="60" as="geometry" />
        </mxCell>
        <mxCell id="ghIqLs4iLFED382wYcei-3" value="&lt;font style=&quot;font-size: 18px;&quot;&gt;14&lt;/font&gt;" style="ellipse;whiteSpace=wrap;html=1;aspect=fixed;" vertex="1" parent="1">
          <mxGeometry x="290" y="490" width="60" height="60" as="geometry" />
        </mxCell>
        <mxCell id="ghIqLs4iLFED382wYcei-4" value="&lt;font style=&quot;font-size: 18px;&quot;&gt;13&lt;/font&gt;" style="ellipse;whiteSpace=wrap;html=1;aspect=fixed;" vertex="1" parent="1">
          <mxGeometry x="250" y="590" width="60" height="60" as="geometry" />
        </mxCell>
        <mxCell id="ghIqLs4iLFED382wYcei-5" value="&lt;font style=&quot;font-size: 18px;&quot;&gt;16&lt;/font&gt;" style="ellipse;whiteSpace=wrap;html=1;aspect=fixed;" vertex="1" parent="1">
          <mxGeometry x="350" y="590" width="60" height="60" as="geometry" />
        </mxCell>
        <mxCell id="ghIqLs4iLFED382wYcei-6" value="&lt;font style=&quot;font-size: 18px;&quot;&gt;4&lt;/font&gt;" style="ellipse;whiteSpace=wrap;html=1;aspect=fixed;" vertex="1" parent="1">
          <mxGeometry x="70" y="590" width="60" height="60" as="geometry" />
        </mxCell>
        <mxCell id="ghIqLs4iLFED382wYcei-7" value="&lt;font style=&quot;font-size: 18px;&quot;&gt;8&lt;/font&gt;" style="ellipse;whiteSpace=wrap;html=1;aspect=fixed;" vertex="1" parent="1">
          <mxGeometry x="170" y="590" width="60" height="60" as="geometry" />
        </mxCell>
        <mxCell id="ghIqLs4iLFED382wYcei-8" value="&lt;font style=&quot;font-size: 18px;&quot;&gt;17&lt;/font&gt;" style="ellipse;whiteSpace=wrap;html=1;aspect=fixed;" vertex="1" parent="1">
          <mxGeometry x="390" y="680" width="60" height="60" as="geometry" />
        </mxCell>
        <mxCell id="ghIqLs4iLFED382wYcei-9" value="" style="endArrow=classic;html=1;rounded=0;exitX=1;exitY=1;exitDx=0;exitDy=0;" edge="1" parent="1" source="ghIqLs4iLFED382wYcei-1" target="ghIqLs4iLFED382wYcei-3">
          <mxGeometry width="50" height="50" relative="1" as="geometry">
            <mxPoint x="370" y="450" as="sourcePoint" />
            <mxPoint x="420" y="400" as="targetPoint" />
          </mxGeometry>
        </mxCell>
        <mxCell id="ghIqLs4iLFED382wYcei-10" value="" style="endArrow=classic;html=1;rounded=0;exitX=0;exitY=1;exitDx=0;exitDy=0;entryX=0.74;entryY=0.11;entryDx=0;entryDy=0;entryPerimeter=0;" edge="1" parent="1" source="ghIqLs4iLFED382wYcei-1" target="ghIqLs4iLFED382wYcei-2">
          <mxGeometry width="50" height="50" relative="1" as="geometry">
            <mxPoint x="271" y="461" as="sourcePoint" />
            <mxPoint x="311" y="507" as="targetPoint" />
          </mxGeometry>
        </mxCell>
        <mxCell id="ghIqLs4iLFED382wYcei-11" value="" style="endArrow=classic;html=1;rounded=0;" edge="1" parent="1" source="ghIqLs4iLFED382wYcei-3" target="ghIqLs4iLFED382wYcei-5">
          <mxGeometry width="50" height="50" relative="1" as="geometry">
            <mxPoint x="370" y="540" as="sourcePoint" />
            <mxPoint x="321" y="517" as="targetPoint" />
          </mxGeometry>
        </mxCell>
        <mxCell id="ghIqLs4iLFED382wYcei-12" value="" style="endArrow=classic;html=1;rounded=0;entryX=0.5;entryY=0;entryDx=0;entryDy=0;" edge="1" parent="1" source="ghIqLs4iLFED382wYcei-3" target="ghIqLs4iLFED382wYcei-4">
          <mxGeometry width="50" height="50" relative="1" as="geometry">
            <mxPoint x="291" y="481" as="sourcePoint" />
            <mxPoint x="331" y="527" as="targetPoint" />
          </mxGeometry>
        </mxCell>
        <mxCell id="ghIqLs4iLFED382wYcei-13" value="" style="endArrow=classic;html=1;rounded=0;entryX=0.5;entryY=0;entryDx=0;entryDy=0;" edge="1" parent="1" source="ghIqLs4iLFED382wYcei-2" target="ghIqLs4iLFED382wYcei-7">
          <mxGeometry width="50" height="50" relative="1" as="geometry">
            <mxPoint x="301" y="491" as="sourcePoint" />
            <mxPoint x="341" y="537" as="targetPoint" />
          </mxGeometry>
        </mxCell>
        <mxCell id="ghIqLs4iLFED382wYcei-14" value="" style="endArrow=classic;html=1;rounded=0;exitX=0.287;exitY=0.923;exitDx=0;exitDy=0;entryX=0.5;entryY=0;entryDx=0;entryDy=0;exitPerimeter=0;" edge="1" parent="1" source="ghIqLs4iLFED382wYcei-2" target="ghIqLs4iLFED382wYcei-6">
          <mxGeometry width="50" height="50" relative="1" as="geometry">
            <mxPoint x="311" y="501" as="sourcePoint" />
            <mxPoint x="351" y="547" as="targetPoint" />
          </mxGeometry>
        </mxCell>
        <mxCell id="ghIqLs4iLFED382wYcei-15" value="" style="endArrow=classic;html=1;rounded=0;" edge="1" parent="1" source="ghIqLs4iLFED382wYcei-5" target="ghIqLs4iLFED382wYcei-8">
          <mxGeometry width="50" height="50" relative="1" as="geometry">
            <mxPoint x="321" y="511" as="sourcePoint" />
            <mxPoint x="361" y="557" as="targetPoint" />
            <Array as="points">
              <mxPoint x="400" y="670" />
            </Array>
          </mxGeometry>
        </mxCell>
        <mxCell id="ghIqLs4iLFED382wYcei-16" value="&lt;font style=&quot;font-size: 18px;&quot;&gt;6&lt;/font&gt;" style="ellipse;whiteSpace=wrap;html=1;aspect=fixed;" vertex="1" parent="1">
          <mxGeometry x="120" y="690" width="60" height="60" as="geometry" />
        </mxCell>
        <mxCell id="ghIqLs4iLFED382wYcei-18" value="" style="endArrow=classic;html=1;rounded=0;exitX=0.36;exitY=1.03;exitDx=0;exitDy=0;exitPerimeter=0;entryX=0.82;entryY=0.017;entryDx=0;entryDy=0;entryPerimeter=0;" edge="1" parent="1" source="ghIqLs4iLFED382wYcei-7" target="ghIqLs4iLFED382wYcei-16">
          <mxGeometry width="50" height="50" relative="1" as="geometry">
            <mxPoint x="260" y="720" as="sourcePoint" />
            <mxPoint x="310" y="670" as="targetPoint" />
          </mxGeometry>
        </mxCell>
        <mxCell id="ghIqLs4iLFED382wYcei-19" value="&lt;font style=&quot;font-size: 18px;&quot;&gt;10&lt;/font&gt;" style="ellipse;whiteSpace=wrap;html=1;aspect=fixed;" vertex="1" parent="1">
          <mxGeometry x="740" y="90" width="60" height="60" as="geometry" />
        </mxCell>
        <mxCell id="ghIqLs4iLFED382wYcei-20" value="&lt;font style=&quot;font-size: 18px;&quot;&gt;5&lt;/font&gt;" style="ellipse;whiteSpace=wrap;html=1;aspect=fixed;" vertex="1" parent="1">
          <mxGeometry x="660" y="240" width="60" height="60" as="geometry" />
        </mxCell>
        <mxCell id="ghIqLs4iLFED382wYcei-21" value="&lt;font style=&quot;font-size: 18px;&quot;&gt;14&lt;/font&gt;" style="ellipse;whiteSpace=wrap;html=1;aspect=fixed;" vertex="1" parent="1">
          <mxGeometry x="830" y="240" width="60" height="60" as="geometry" />
        </mxCell>
        <mxCell id="ghIqLs4iLFED382wYcei-22" value="&lt;font style=&quot;font-size: 18px;&quot;&gt;13&lt;/font&gt;" style="ellipse;whiteSpace=wrap;html=1;aspect=fixed;" vertex="1" parent="1">
          <mxGeometry x="790" y="340" width="60" height="60" as="geometry" />
        </mxCell>
        <mxCell id="ghIqLs4iLFED382wYcei-23" value="&lt;font style=&quot;font-size: 18px;&quot;&gt;16&lt;/font&gt;" style="ellipse;whiteSpace=wrap;html=1;aspect=fixed;" vertex="1" parent="1">
          <mxGeometry x="890" y="340" width="60" height="60" as="geometry" />
        </mxCell>
        <mxCell id="ghIqLs4iLFED382wYcei-24" value="&lt;font style=&quot;font-size: 18px;&quot;&gt;4&lt;/font&gt;" style="ellipse;whiteSpace=wrap;html=1;aspect=fixed;" vertex="1" parent="1">
          <mxGeometry x="610" y="340" width="60" height="60" as="geometry" />
        </mxCell>
        <mxCell id="ghIqLs4iLFED382wYcei-25" value="&lt;font style=&quot;font-size: 18px;&quot;&gt;8&lt;/font&gt;" style="ellipse;whiteSpace=wrap;html=1;aspect=fixed;" vertex="1" parent="1">
          <mxGeometry x="710" y="340" width="60" height="60" as="geometry" />
        </mxCell>
        <mxCell id="ghIqLs4iLFED382wYcei-26" value="&lt;font style=&quot;font-size: 18px;&quot;&gt;17&lt;/font&gt;" style="ellipse;whiteSpace=wrap;html=1;aspect=fixed;" vertex="1" parent="1">
          <mxGeometry x="930" y="430" width="60" height="60" as="geometry" />
        </mxCell>
        <mxCell id="ghIqLs4iLFED382wYcei-29" value="" style="endArrow=classic;html=1;rounded=0;" edge="1" parent="1" source="ghIqLs4iLFED382wYcei-21" target="ghIqLs4iLFED382wYcei-23">
          <mxGeometry width="50" height="50" relative="1" as="geometry">
            <mxPoint x="910" y="290" as="sourcePoint" />
            <mxPoint x="861" y="267" as="targetPoint" />
          </mxGeometry>
        </mxCell>
        <mxCell id="ghIqLs4iLFED382wYcei-30" value="" style="endArrow=classic;html=1;rounded=0;entryX=0.5;entryY=0;entryDx=0;entryDy=0;" edge="1" parent="1" source="ghIqLs4iLFED382wYcei-21" target="ghIqLs4iLFED382wYcei-22">
          <mxGeometry width="50" height="50" relative="1" as="geometry">
            <mxPoint x="831" y="231" as="sourcePoint" />
            <mxPoint x="871" y="277" as="targetPoint" />
          </mxGeometry>
        </mxCell>
        <mxCell id="ghIqLs4iLFED382wYcei-31" value="" style="endArrow=classic;html=1;rounded=0;entryX=0.5;entryY=0;entryDx=0;entryDy=0;" edge="1" parent="1" source="ghIqLs4iLFED382wYcei-20" target="ghIqLs4iLFED382wYcei-25">
          <mxGeometry width="50" height="50" relative="1" as="geometry">
            <mxPoint x="841" y="241" as="sourcePoint" />
            <mxPoint x="881" y="287" as="targetPoint" />
          </mxGeometry>
        </mxCell>
        <mxCell id="ghIqLs4iLFED382wYcei-32" value="" style="endArrow=classic;html=1;rounded=0;exitX=0.287;exitY=0.923;exitDx=0;exitDy=0;entryX=0.5;entryY=0;entryDx=0;entryDy=0;exitPerimeter=0;" edge="1" parent="1" source="ghIqLs4iLFED382wYcei-20" target="ghIqLs4iLFED382wYcei-24">
          <mxGeometry width="50" height="50" relative="1" as="geometry">
            <mxPoint x="851" y="251" as="sourcePoint" />
            <mxPoint x="891" y="297" as="targetPoint" />
          </mxGeometry>
        </mxCell>
        <mxCell id="ghIqLs4iLFED382wYcei-33" value="" style="endArrow=classic;html=1;rounded=0;" edge="1" parent="1" source="ghIqLs4iLFED382wYcei-23" target="ghIqLs4iLFED382wYcei-26">
          <mxGeometry width="50" height="50" relative="1" as="geometry">
            <mxPoint x="861" y="261" as="sourcePoint" />
            <mxPoint x="901" y="307" as="targetPoint" />
            <Array as="points">
              <mxPoint x="940" y="420" />
            </Array>
          </mxGeometry>
        </mxCell>
        <mxCell id="ghIqLs4iLFED382wYcei-34" value="&lt;font style=&quot;font-size: 18px;&quot;&gt;6&lt;/font&gt;" style="ellipse;whiteSpace=wrap;html=1;aspect=fixed;" vertex="1" parent="1">
          <mxGeometry x="660" y="440" width="60" height="60" as="geometry" />
        </mxCell>
        <mxCell id="ghIqLs4iLFED382wYcei-35" value="" style="endArrow=classic;html=1;rounded=0;exitX=0.36;exitY=1.03;exitDx=0;exitDy=0;exitPerimeter=0;entryX=0.82;entryY=0.017;entryDx=0;entryDy=0;entryPerimeter=0;" edge="1" parent="1" source="ghIqLs4iLFED382wYcei-25" target="ghIqLs4iLFED382wYcei-34">
          <mxGeometry width="50" height="50" relative="1" as="geometry">
            <mxPoint x="800" y="470" as="sourcePoint" />
            <mxPoint x="850" y="420" as="targetPoint" />
          </mxGeometry>
        </mxCell>
        <mxCell id="ghIqLs4iLFED382wYcei-37" value="&lt;font style=&quot;font-size: 18px;&quot;&gt;5&lt;/font&gt;" style="ellipse;whiteSpace=wrap;html=1;aspect=fixed;" vertex="1" parent="1">
          <mxGeometry x="717" y="950" width="60" height="60" as="geometry" />
        </mxCell>
        <mxCell id="ghIqLs4iLFED382wYcei-38" value="&lt;font style=&quot;font-size: 18px;&quot;&gt;14&lt;/font&gt;" style="ellipse;whiteSpace=wrap;html=1;aspect=fixed;" vertex="1" parent="1">
          <mxGeometry x="840" y="720" width="60" height="60" as="geometry" />
        </mxCell>
        <mxCell id="ghIqLs4iLFED382wYcei-39" value="&lt;font style=&quot;font-size: 18px;&quot;&gt;13&lt;/font&gt;" style="ellipse;whiteSpace=wrap;html=1;aspect=fixed;" vertex="1" parent="1">
          <mxGeometry x="800" y="820" width="60" height="60" as="geometry" />
        </mxCell>
        <mxCell id="ghIqLs4iLFED382wYcei-40" value="&lt;font style=&quot;font-size: 18px;&quot;&gt;16&lt;/font&gt;" style="ellipse;whiteSpace=wrap;html=1;aspect=fixed;" vertex="1" parent="1">
          <mxGeometry x="900" y="820" width="60" height="60" as="geometry" />
        </mxCell>
        <mxCell id="ghIqLs4iLFED382wYcei-41" value="&lt;font style=&quot;font-size: 18px;&quot;&gt;4&lt;/font&gt;" style="ellipse;whiteSpace=wrap;html=1;aspect=fixed;" vertex="1" parent="1">
          <mxGeometry x="667" y="1050" width="60" height="60" as="geometry" />
        </mxCell>
        <mxCell id="ghIqLs4iLFED382wYcei-42" value="&lt;font style=&quot;font-size: 18px;&quot;&gt;8&lt;/font&gt;" style="ellipse;whiteSpace=wrap;html=1;aspect=fixed;" vertex="1" parent="1">
          <mxGeometry x="767" y="1050" width="60" height="60" as="geometry" />
        </mxCell>
        <mxCell id="ghIqLs4iLFED382wYcei-43" value="&lt;font style=&quot;font-size: 18px;&quot;&gt;17&lt;/font&gt;" style="ellipse;whiteSpace=wrap;html=1;aspect=fixed;" vertex="1" parent="1">
          <mxGeometry x="940" y="910" width="60" height="60" as="geometry" />
        </mxCell>
        <mxCell id="ghIqLs4iLFED382wYcei-46" value="" style="endArrow=classic;html=1;rounded=0;" edge="1" parent="1" source="ghIqLs4iLFED382wYcei-38" target="ghIqLs4iLFED382wYcei-40">
          <mxGeometry width="50" height="50" relative="1" as="geometry">
            <mxPoint x="920" y="770" as="sourcePoint" />
            <mxPoint x="871" y="747" as="targetPoint" />
          </mxGeometry>
        </mxCell>
        <mxCell id="ghIqLs4iLFED382wYcei-47" value="" style="endArrow=classic;html=1;rounded=0;entryX=0.5;entryY=0;entryDx=0;entryDy=0;" edge="1" parent="1" source="ghIqLs4iLFED382wYcei-38" target="ghIqLs4iLFED382wYcei-39">
          <mxGeometry width="50" height="50" relative="1" as="geometry">
            <mxPoint x="841" y="711" as="sourcePoint" />
            <mxPoint x="881" y="757" as="targetPoint" />
          </mxGeometry>
        </mxCell>
        <mxCell id="ghIqLs4iLFED382wYcei-48" value="" style="endArrow=classic;html=1;rounded=0;entryX=0.5;entryY=0;entryDx=0;entryDy=0;" edge="1" parent="1" source="ghIqLs4iLFED382wYcei-37" target="ghIqLs4iLFED382wYcei-42">
          <mxGeometry width="50" height="50" relative="1" as="geometry">
            <mxPoint x="898" y="951" as="sourcePoint" />
            <mxPoint x="938" y="997" as="targetPoint" />
          </mxGeometry>
        </mxCell>
        <mxCell id="ghIqLs4iLFED382wYcei-49" value="" style="endArrow=classic;html=1;rounded=0;exitX=0.287;exitY=0.923;exitDx=0;exitDy=0;entryX=0.5;entryY=0;entryDx=0;entryDy=0;exitPerimeter=0;" edge="1" parent="1" source="ghIqLs4iLFED382wYcei-37" target="ghIqLs4iLFED382wYcei-41">
          <mxGeometry width="50" height="50" relative="1" as="geometry">
            <mxPoint x="908" y="961" as="sourcePoint" />
            <mxPoint x="948" y="1007" as="targetPoint" />
          </mxGeometry>
        </mxCell>
        <mxCell id="ghIqLs4iLFED382wYcei-50" value="" style="endArrow=classic;html=1;rounded=0;" edge="1" parent="1" source="ghIqLs4iLFED382wYcei-40" target="ghIqLs4iLFED382wYcei-43">
          <mxGeometry width="50" height="50" relative="1" as="geometry">
            <mxPoint x="871" y="741" as="sourcePoint" />
            <mxPoint x="911" y="787" as="targetPoint" />
            <Array as="points">
              <mxPoint x="950" y="900" />
            </Array>
          </mxGeometry>
        </mxCell>
        <mxCell id="ghIqLs4iLFED382wYcei-51" value="&lt;font style=&quot;font-size: 18px;&quot;&gt;6&lt;/font&gt;" style="ellipse;whiteSpace=wrap;html=1;aspect=fixed;" vertex="1" parent="1">
          <mxGeometry x="717" y="1150" width="60" height="60" as="geometry" />
        </mxCell>
        <mxCell id="ghIqLs4iLFED382wYcei-52" value="" style="endArrow=classic;html=1;rounded=0;exitX=0.36;exitY=1.03;exitDx=0;exitDy=0;exitPerimeter=0;entryX=0.82;entryY=0.017;entryDx=0;entryDy=0;entryPerimeter=0;" edge="1" parent="1" source="ghIqLs4iLFED382wYcei-42" target="ghIqLs4iLFED382wYcei-51">
          <mxGeometry width="50" height="50" relative="1" as="geometry">
            <mxPoint x="857" y="1180" as="sourcePoint" />
            <mxPoint x="907" y="1130" as="targetPoint" />
          </mxGeometry>
        </mxCell>
        <mxCell id="ghIqLs4iLFED382wYcei-56" value="" style="endArrow=classic;html=1;rounded=0;exitX=0;exitY=1;exitDx=0;exitDy=0;" edge="1" parent="1" source="ghIqLs4iLFED382wYcei-19">
          <mxGeometry width="50" height="50" relative="1" as="geometry">
            <mxPoint x="610" y="200" as="sourcePoint" />
            <mxPoint x="710" y="200" as="targetPoint" />
          </mxGeometry>
        </mxCell>
        <mxCell id="ghIqLs4iLFED382wYcei-57" value="" style="endArrow=classic;html=1;rounded=0;exitX=1;exitY=1;exitDx=0;exitDy=0;" edge="1" parent="1" source="ghIqLs4iLFED382wYcei-19">
          <mxGeometry width="50" height="50" relative="1" as="geometry">
            <mxPoint x="840" y="170" as="sourcePoint" />
            <mxPoint x="830" y="200" as="targetPoint" />
          </mxGeometry>
        </mxCell>
        <mxCell id="ghIqLs4iLFED382wYcei-58" value="&lt;font style=&quot;font-size: 18px;&quot;&gt;5&lt;/font&gt;" style="ellipse;whiteSpace=wrap;html=1;aspect=fixed;" vertex="1" parent="1">
          <mxGeometry x="140" y="880" width="60" height="60" as="geometry" />
        </mxCell>
        <mxCell id="ghIqLs4iLFED382wYcei-59" value="&lt;font style=&quot;font-size: 18px;&quot;&gt;14&lt;/font&gt;" style="ellipse;whiteSpace=wrap;html=1;aspect=fixed;" vertex="1" parent="1">
          <mxGeometry x="290" y="1090" width="60" height="60" as="geometry" />
        </mxCell>
        <mxCell id="ghIqLs4iLFED382wYcei-60" value="&lt;font style=&quot;font-size: 18px;&quot;&gt;13&lt;/font&gt;" style="ellipse;whiteSpace=wrap;html=1;aspect=fixed;" vertex="1" parent="1">
          <mxGeometry x="250" y="1190" width="60" height="60" as="geometry" />
        </mxCell>
        <mxCell id="ghIqLs4iLFED382wYcei-61" value="&lt;font style=&quot;font-size: 18px;&quot;&gt;16&lt;/font&gt;" style="ellipse;whiteSpace=wrap;html=1;aspect=fixed;" vertex="1" parent="1">
          <mxGeometry x="350" y="1190" width="60" height="60" as="geometry" />
        </mxCell>
        <mxCell id="ghIqLs4iLFED382wYcei-62" value="&lt;font style=&quot;font-size: 18px;&quot;&gt;4&lt;/font&gt;" style="ellipse;whiteSpace=wrap;html=1;aspect=fixed;" vertex="1" parent="1">
          <mxGeometry x="90" y="980" width="60" height="60" as="geometry" />
        </mxCell>
        <mxCell id="ghIqLs4iLFED382wYcei-63" value="&lt;font style=&quot;font-size: 18px;&quot;&gt;8&lt;/font&gt;" style="ellipse;whiteSpace=wrap;html=1;aspect=fixed;" vertex="1" parent="1">
          <mxGeometry x="190" y="980" width="60" height="60" as="geometry" />
        </mxCell>
        <mxCell id="ghIqLs4iLFED382wYcei-64" value="&lt;font style=&quot;font-size: 18px;&quot;&gt;17&lt;/font&gt;" style="ellipse;whiteSpace=wrap;html=1;aspect=fixed;" vertex="1" parent="1">
          <mxGeometry x="390" y="1280" width="60" height="60" as="geometry" />
        </mxCell>
        <mxCell id="ghIqLs4iLFED382wYcei-65" value="" style="endArrow=classic;html=1;rounded=0;" edge="1" parent="1" source="ghIqLs4iLFED382wYcei-59" target="ghIqLs4iLFED382wYcei-61">
          <mxGeometry width="50" height="50" relative="1" as="geometry">
            <mxPoint x="370" y="1140" as="sourcePoint" />
            <mxPoint x="321" y="1117" as="targetPoint" />
          </mxGeometry>
        </mxCell>
        <mxCell id="ghIqLs4iLFED382wYcei-66" value="" style="endArrow=classic;html=1;rounded=0;entryX=0.5;entryY=0;entryDx=0;entryDy=0;" edge="1" parent="1" source="ghIqLs4iLFED382wYcei-59" target="ghIqLs4iLFED382wYcei-60">
          <mxGeometry width="50" height="50" relative="1" as="geometry">
            <mxPoint x="291" y="1081" as="sourcePoint" />
            <mxPoint x="331" y="1127" as="targetPoint" />
          </mxGeometry>
        </mxCell>
        <mxCell id="ghIqLs4iLFED382wYcei-67" value="" style="endArrow=classic;html=1;rounded=0;entryX=0.5;entryY=0;entryDx=0;entryDy=0;" edge="1" parent="1" source="ghIqLs4iLFED382wYcei-58" target="ghIqLs4iLFED382wYcei-63">
          <mxGeometry width="50" height="50" relative="1" as="geometry">
            <mxPoint x="321" y="881" as="sourcePoint" />
            <mxPoint x="361" y="927" as="targetPoint" />
          </mxGeometry>
        </mxCell>
        <mxCell id="ghIqLs4iLFED382wYcei-68" value="" style="endArrow=classic;html=1;rounded=0;exitX=0.287;exitY=0.923;exitDx=0;exitDy=0;entryX=0.5;entryY=0;entryDx=0;entryDy=0;exitPerimeter=0;" edge="1" parent="1" source="ghIqLs4iLFED382wYcei-58" target="ghIqLs4iLFED382wYcei-62">
          <mxGeometry width="50" height="50" relative="1" as="geometry">
            <mxPoint x="331" y="891" as="sourcePoint" />
            <mxPoint x="371" y="937" as="targetPoint" />
          </mxGeometry>
        </mxCell>
        <mxCell id="ghIqLs4iLFED382wYcei-69" value="" style="endArrow=classic;html=1;rounded=0;" edge="1" parent="1" source="ghIqLs4iLFED382wYcei-61" target="ghIqLs4iLFED382wYcei-64">
          <mxGeometry width="50" height="50" relative="1" as="geometry">
            <mxPoint x="321" y="1111" as="sourcePoint" />
            <mxPoint x="361" y="1157" as="targetPoint" />
            <Array as="points">
              <mxPoint x="400" y="1270" />
            </Array>
          </mxGeometry>
        </mxCell>
        <mxCell id="ghIqLs4iLFED382wYcei-70" value="&lt;font style=&quot;font-size: 18px;&quot;&gt;6&lt;/font&gt;" style="ellipse;whiteSpace=wrap;html=1;aspect=fixed;" vertex="1" parent="1">
          <mxGeometry x="140" y="1080" width="60" height="60" as="geometry" />
        </mxCell>
        <mxCell id="ghIqLs4iLFED382wYcei-71" value="" style="endArrow=classic;html=1;rounded=0;exitX=0.36;exitY=1.03;exitDx=0;exitDy=0;exitPerimeter=0;entryX=0.82;entryY=0.017;entryDx=0;entryDy=0;entryPerimeter=0;" edge="1" parent="1" source="ghIqLs4iLFED382wYcei-63" target="ghIqLs4iLFED382wYcei-70">
          <mxGeometry width="50" height="50" relative="1" as="geometry">
            <mxPoint x="280" y="1110" as="sourcePoint" />
            <mxPoint x="330" y="1060" as="targetPoint" />
          </mxGeometry>
        </mxCell>
        <mxCell id="ghIqLs4iLFED382wYcei-72" value="" style="shape=flexArrow;endArrow=classic;html=1;rounded=0;entryX=0.67;entryY=0.023;entryDx=0;entryDy=0;entryPerimeter=0;exitX=0;exitY=1;exitDx=0;exitDy=0;" edge="1" parent="1" source="ghIqLs4iLFED382wYcei-39" target="ghIqLs4iLFED382wYcei-37">
          <mxGeometry width="50" height="50" relative="1" as="geometry">
            <mxPoint x="840" y="930" as="sourcePoint" />
            <mxPoint x="817" y="880" as="targetPoint" />
          </mxGeometry>
        </mxCell>
        <mxCell id="ghIqLs4iLFED382wYcei-73" value="" style="shape=flexArrow;endArrow=classic;html=1;rounded=0;exitX=0.833;exitY=1;exitDx=0;exitDy=0;exitPerimeter=0;entryX=0;entryY=0;entryDx=0;entryDy=0;" edge="1" parent="1" source="ghIqLs4iLFED382wYcei-63" target="ghIqLs4iLFED382wYcei-59">
          <mxGeometry width="50" height="50" relative="1" as="geometry">
            <mxPoint x="360" y="1040" as="sourcePoint" />
            <mxPoint x="410" y="990" as="targetPoint" />
          </mxGeometry>
        </mxCell>
      </root>
    </mxGraphModel>
  </diagram>
</mxfile>
